# xmcd
#
# Track frame offsets:
#	150
#	9042
#	20587
#	31205
#	41788
#	53297
#	63404
#	73222
#	83124
#	93420
#	104418
#	115433
#	127367
#	137356
#	148548
#	158286
#	168537
#	180459
#	189194
#	198091
#	211805
#	222835
#	232742
#	243201
#	254979
#
# Disc length: 3553 seconds
#
# Revision: 2
# Processed by: cddbd v1.5.2PL0 Copyright (c) Steve Scherf et al.
# Submitted via: audiograbber 1.83.01
#
DISCID=500ddf19
DTITLE=The Shirelles - Will You Love Me Tomorrow - The Top Rank Records Story (
DTITLE=CD 2)
DYEAR=2013
DGENRE=Soul
TTITLE0=Tonight's The Night
TTITLE1=I Don't Think So
TTITLE2=Big John
TTITLE3=The First One
TTITLE4=Welcome Home Baby
TTITLE5=I Met Him On Sunday
TTITLE6=Stop The Music
TTITLE7=Doin' The Ronde
TTITLE8=Voice Of Experience
TTITLE9=I Saw A Tear
TTITLE10=Mama Here Comes The Bride
TTITLE11=A Thing Of The Past
TTITLE12=Irresistible You
TTITLE13=Make The Night A Little Longer
TTITLE14=Johnny On My Mind
TTITLE15=Lower The Flame
TTITLE16=It's Mine
TTITLE17=Oh, What A Waste Of Love
TTITLE18=I Got The Message
TTITLE19=Rainbow Valley
TTITLE20=Unluckky
TTITLE21=Stop Me
TTITLE22=What's Mine Is Yours
TTITLE23=I Want You To Be My Boyfriend
TTITLE24=The Dance Is Over
EXTD=
EXTT0=
EXTT1=
EXTT2=
EXTT3=
EXTT4=
EXTT5=
EXTT6=
EXTT7=
EXTT8=
EXTT9=
EXTT10=
EXTT11=
EXTT12=
EXTT13=
EXTT14=
EXTT15=
EXTT16=
EXTT17=
EXTT18=
EXTT19=
EXTT20=
EXTT21=
EXTT22=
EXTT23=
EXTT24=
PLAYORDER=
